<svg xmlns="http://www.w3.org/2000/svg" width="150" height="38" viewBox="0 0 150 38" role="img" aria-label="LeetCode"><title>LeetCode</title><g fill="#74aaa9" shape-rendering="crispEdges"><rect x="20" y="5" width="3" height="3"/><rect x="14" y="8" width="3" height="3"/><rect x="17" y="8" width="3" height="3"/><rect x="11" y="11" width="3" height="3"/><rect x="14" y="11" width="3" height="3"/><rect x="8" y="14" width="3" height="3"/><rect x="11" y="14" width="3" height="3"/><rect x="5" y="17" width="3" height="3"/><rect x="8" y="17" width="3" height="3"/><rect x="14" y="17" width="3" height="3"/><rect x="17" y="17" width="3" height="3"/><rect x="20" y="17" width="3" height="3"/><rect x="23" y="17" width="3" height="3"/><rect x="26" y="17" width="3" height="3"/><rect x="8" y="20" width="3" height="3"/><rect x="11" y="20" width="3" height="3"/><rect x="11" y="23" width="3" height="3"/><rect x="14" y="23" width="3" height="3"/><rect x="14" y="26" width="3" height="3"/><rect x="17" y="26" width="3" height="3"/><rect x="20" y="26" width="3" height="3"/></g><text x="43" y="25" fill="#8b949e" font-family="monospace" font-size="17">LeetCode</text></svg>