<svg xmlns="http://www.w3.org/2000/svg" width="140" height="38" viewBox="0 0 140 38" role="img" aria-label="Website"><title>Website</title><g fill="#74aaa9" shape-rendering="crispEdges"><rect x="14" y="5" width="3" height="3"/><rect x="17" y="5" width="3" height="3"/><rect x="20" y="5" width="3" height="3"/><rect x="11" y="8" width="3" height="3"/><rect x="17" y="8" width="3" height="3"/><rect x="23" y="8" width="3" height="3"/><rect x="8" y="11" width="3" height="3"/><rect x="17" y="11" width="3" height="3"/><rect x="26" y="11" width="3" height="3"/><rect x="8" y="14" width="3" height="3"/><rect x="17" y="14" width="3" height="3"/><rect x="26" y="14" width="3" height="3"/><rect x="8" y="17" width="3" height="3"/><rect x="11" y="17" width="3" height="3"/><rect x="14" y="17" width="3" height="3"/><rect x="17" y="17" width="3" height="3"/><rect x="20" y="17" width="3" height="3"/><rect x="23" y="17" width="3" height="3"/><rect x="26" y="17" width="3" height="3"/><rect x="8" y="20" width="3" height="3"/><rect x="17" y="20" width="3" height="3"/><rect x="26" y="20" width="3" height="3"/><rect x="8" y="23" width="3" height="3"/><rect x="17" y="23" width="3" height="3"/><rect x="26" y="23" width="3" height="3"/><rect x="11" y="26" width="3" height="3"/><rect x="17" y="26" width="3" height="3"/><rect x="23" y="26" width="3" height="3"/><rect x="14" y="29" width="3" height="3"/><rect x="17" y="29" width="3" height="3"/><rect x="20" y="29" width="3" height="3"/></g><text x="43" y="25" fill="#8b949e" font-family="monospace" font-size="17">Website</text></svg>